<?xml version="1.0" encoding="UTF-8"?>
<svg xmlns="http://www.w3.org/2000/svg" xmlns:xlink="http://www.w3.org/1999/xlink" width="80pt" height="80pt" viewBox="0 0 80 80" version="1.1">
<g id="surface2541258">
<path style=" stroke:none;fill-rule:nonzero;fill:rgb(94.509804%,76.862745%,5.882353%);fill-opacity:1;" d="M 15 69 L 15 68 L 6.988281 11.859375 L 6.992188 11 L 73 11 L 73 12 L 65.011719 67.859375 L 65.003906 69 Z M 15 69 "/>
<path style=" stroke:none;fill-rule:nonzero;fill:rgb(27.843137%,53.333333%,78.039216%);fill-opacity:1;" d="M 71.980469 12 L 64.019531 67.71875 L 64 67.859375 L 64 68 L 16 68 L 16 67.859375 L 15.980469 67.71875 L 8.019531 12 L 71.980469 12 M 74 10 L 6 10 L 6 12 L 14 68 L 14 70 L 66 70 L 66 68 L 74 12 Z M 74 10 "/>
<path style=" stroke:none;fill-rule:nonzero;fill:rgb(71.372549%,86.27451%,99.607843%);fill-opacity:1;" d="M 6 11 C 5.449219 11 5 10.550781 5 10 L 5 4 C 5 3.449219 5.449219 3 6 3 L 74 3 C 74.550781 3 75 3.449219 75 4 L 75 10 C 75 10.550781 74.550781 11 74 11 Z M 6 11 "/>
<path style=" stroke:none;fill-rule:nonzero;fill:rgb(27.843137%,53.333333%,78.039216%);fill-opacity:1;" d="M 74 4 L 74 10 L 6 10 L 6 4 L 74 4 M 74 2 L 6 2 C 4.894531 2 4 2.894531 4 4 L 4 10 C 4 11.105469 4.894531 12 6 12 L 74 12 C 75.105469 12 76 11.105469 76 10 L 76 4 C 76 2.894531 75.105469 2 74 2 Z M 74 2 "/>
<path style=" stroke:none;fill-rule:nonzero;fill:rgb(71.372549%,86.27451%,99.607843%);fill-opacity:1;" d="M 20 77 C 17.242188 77 15 74.757812 15 72 L 15 69 L 65 69 L 65 72 C 65 74.757812 62.757812 77 60 77 Z M 20 77 "/>
<path style=" stroke:none;fill-rule:nonzero;fill:rgb(27.843137%,53.333333%,78.039216%);fill-opacity:1;" d="M 64 70 L 64 72 C 64 74.207031 62.207031 76 60 76 L 20 76 C 17.792969 76 16 74.207031 16 72 L 16 70 L 64 70 M 66 68 L 14 68 L 14 72 C 14 75.3125 16.6875 78 20 78 L 60 78 C 63.3125 78 66 75.3125 66 72 Z M 66 68 "/>
<path style=" stroke:none;fill-rule:nonzero;fill:rgb(27.843137%,53.333333%,78.039216%);fill-opacity:1;" d="M 54.523438 43.546875 L 52.269531 39.742188 L 50.859375 42.839844 L 47.453125 42.597656 L 49.707031 46.398438 L 43.238281 46.398438 L 40.535156 49.199219 L 43.238281 52 L 49.71875 52 C 52.054688 52 53.949219 51.003906 54.910156 49.273438 C 55.863281 47.550781 55.710938 45.441406 54.523438 43.546875 Z M 49.175781 34.257812 L 44.90625 27.007812 C 43.714844 25.097656 41.953125 24 40.066406 24 C 38.1875 24 36.425781 25.097656 35.199219 27.0625 L 32.523438 31.570312 L 35.84375 31.503906 L 37.335938 34.429688 L 39.980469 29.976562 C 40.011719 29.925781 40.042969 29.878906 40.070312 29.835938 C 40.085938 29.859375 40.101562 29.886719 40.121094 29.910156 L 44.347656 37.097656 L 48.183594 38.066406 Z M 30.3125 46.367188 L 34.117188 39.746094 L 33.125 36.089844 L 29.261719 36.957031 L 25.46875 43.550781 C 24.285156 45.566406 24.152344 47.6875 25.113281 49.359375 C 26.070312 51.039062 27.953125 52 30.28125 52 L 37.183594 52 L 35.1875 49.199219 L 37.183594 46.398438 L 30.292969 46.398438 C 30.296875 46.390625 30.304688 46.378906 30.3125 46.367188 Z M 30.3125 46.367188 "/>
</g>
</svg>
